<svg width="170" height="13" viewBox="0 0 170 13" fill="none" xmlns="http://www.w3.org/2000/svg">
  <g opacity="0.5" clip-path="url(#clip0_1141_21968)">
    <path d="M31.9231 2.71787L31.9231 2.71788L27.3107 3.27628L27.3106 3.27629C14.3469 4.84834 7.31479 5.94738 2.32114 7.18912L2.32112 7.18912C1.36852 7.42603 0.805289 7.57069 0.488218 7.69104C0.338374 7.74791 0.159359 7.82815 0.0301518 7.97129C-0.141213 8.16113 -0.153222 8.37128 -0.143132 8.5041L-0.143004 8.50572C-0.137234 8.57853 -0.121186 8.70184 -0.0510429 8.82689C0.0276759 8.96723 0.14728 9.06318 0.281715 9.11979C0.498427 9.21105 0.768307 9.20271 1.02459 9.17985C1.58229 9.13011 2.58218 8.94664 4.35134 8.60937L4.25771 8.11822L4.35134 8.60937C8.02161 7.90965 11.2911 7.45478 20.2775 6.39658C50.3069 2.86038 64.2326 1.82958 79.684 1.99317L79.6893 1.4932L79.684 1.99317C81.183 2.00896 83.1252 2.13327 84.6888 2.28651C85.1479 2.3315 85.5712 2.37868 85.939 2.42592C85.6265 2.52828 85.2543 2.64287 84.8189 2.77041C83.1261 3.26626 80.5278 3.94344 76.8936 4.83928C72.4196 5.94203 68.8124 6.87051 66.2572 7.57386C64.9803 7.92535 63.9616 8.22183 63.2273 8.45654C62.8607 8.57372 62.5592 8.6773 62.3296 8.76612C62.1231 8.84595 61.9124 8.93624 61.7812 9.03766C61.5199 9.23962 61.279 9.51288 61.2347 9.86422C61.1855 10.2552 61.3969 10.5569 61.6442 10.7487C61.8844 10.9349 62.209 11.0647 62.5678 11.1553C62.9343 11.2478 63.3722 11.3081 63.8679 11.3335C64.9805 11.3905 65.2607 11.3792 70.2628 11.1026C84.6514 10.3082 93.8089 10.0713 106.169 10.1733C124.998 10.3288 136.942 10.8325 159.329 12.4163C167.347 12.9835 167.83 13.0073 169.413 12.8079C169.413 12.8079 169.414 12.8078 169.414 12.8078L169.439 12.8048L169.44 12.8047C169.824 12.7575 170.198 12.5228 170.3 12.1196C170.352 11.9135 170.319 11.6922 170.195 11.5044C170.074 11.3219 169.891 11.2061 169.697 11.1424L169.696 11.1423C168.438 10.7301 167.549 10.6415 160.609 10.1537C137.213 8.50905 124.854 7.97462 106.87 7.83189C97.4138 7.75669 93.1858 7.79753 86.2589 8.0316C83.0002 8.14171 76.0443 8.45068 71.4547 8.67828C73.2169 8.22195 75.4909 7.65139 78.1827 6.99199L78.0637 6.50635L78.1827 6.99199C82.9013 5.83594 85.7691 5.0789 87.4765 4.46418C88.3269 4.15801 88.9326 3.87253 89.3421 3.5652C89.7721 3.24238 90.0117 2.87429 90.0706 2.42739L89.5749 2.36201L90.0706 2.42735C90.1291 1.98381 90.033 1.55735 89.7067 1.19982C89.4057 0.869982 88.9495 0.645088 88.388 0.474031C87.2637 0.131575 85.447 -0.0707937 82.7397 -0.228103C72.1153 -0.845633 51.4716 0.354465 31.9231 2.71787Z" fill="#E59500" stroke="#E59500"/>
  </g>
  <defs>
    <clipPath id="clip0_1141_21968">
      <rect width="170" height="12.4286" fill="white"/>
    </clipPath>
  </defs>
</svg>
