<svg width="33" height="28" viewBox="0 0 33 28" fill="none" xmlns="http://www.w3.org/2000/svg">
<path d="M6.46191 5.60083L6.56945 17.6124L10.7105 10.7805L6.46191 5.60083Z" fill="url(#paint0_linear_1307_22023)"/>
<path d="M10.71 10.7802L11.0141 11.1513L14.658 9.4844L12.2012 8.31982L10.71 10.7802Z" fill="url(#paint1_linear_1307_22023)"/>
<path d="M6.63379 17.5054L6.77445 27.2413L11.0141 11.1516L10.71 10.7805L6.63379 17.5054Z" fill="url(#paint2_linear_1307_22023)"/>
<path d="M17.2449 0L6.46191 5.60061L12.2018 8.31987L17.2449 0Z" fill="url(#paint3_linear_1307_22023)"/>
<path d="M0.0224609 27.2222L6.65634 17.5053L6.46191 5.60083L0.0224609 27.2222Z" fill="url(#paint4_linear_1307_22023)"/>
<path d="M12.2018 8.32009L6.46191 5.60083L10.7105 10.7805L12.2018 8.32009Z" fill="url(#paint5_linear_1307_22023)"/>
<path d="M19.793 16.2104L21.5303 27.2605L28.1988 27.2217L19.793 16.2104Z" fill="url(#paint6_linear_1307_22023)"/>
<path d="M14.6582 9.48438L21.5306 27.2607L19.9113 16.2033L14.6582 9.48438Z" fill="url(#paint7_linear_1307_22023)"/>
<path d="M17.2446 0L14.6582 9.48443L19.7933 16.2107L17.2446 0Z" fill="url(#paint8_linear_1307_22023)"/>
<path d="M12.2012 8.31987L14.6579 9.48443L17.2443 0L12.2012 8.31987Z" fill="url(#paint9_linear_1307_22023)"/>
<path d="M28.1987 27.222L17.2441 0L19.7929 16.2107L28.1987 27.222Z" fill="url(#paint10_linear_1307_22023)"/>
<path d="M6.63388 17.5051L0 27.222L6.77454 27.2411L6.63388 17.5051Z" fill="url(#paint11_linear_1307_22023)"/>
<path d="M33 5.60083L0 27.2222L7.51686 27.2464" fill="#E59500"/>
<defs>
<linearGradient id="paint0_linear_1307_22023" x1="6.46191" y1="11.6062" x2="10.7105" y2="11.6062" gradientUnits="userSpaceOnUse">
<stop stop-color="#056B85"/>
<stop offset="0.12" stop-color="#035A70"/>
<stop offset="0.31" stop-color="#024759"/>
<stop offset="0.51" stop-color="#003948"/>
<stop offset="0.73" stop-color="#00313E"/>
<stop offset="1" stop-color="#002F3B"/>
</linearGradient>
<linearGradient id="paint1_linear_1307_22023" x1="10.71" y1="9.7352" x2="14.658" y2="9.7352" gradientUnits="userSpaceOnUse">
<stop stop-color="#056B85"/>
<stop offset="0.21" stop-color="#04667F"/>
<stop offset="0.46" stop-color="#035A71"/>
<stop offset="0.74" stop-color="#024759"/>
<stop offset="1" stop-color="#002F3B"/>
</linearGradient>
<linearGradient id="paint2_linear_1307_22023" x1="6.63379" y1="19.0109" x2="11.0141" y2="19.0109" gradientUnits="userSpaceOnUse">
<stop stop-color="#056B85"/>
<stop offset="0.21" stop-color="#04667F"/>
<stop offset="0.46" stop-color="#035A71"/>
<stop offset="0.74" stop-color="#024759"/>
<stop offset="1" stop-color="#002F3B"/>
</linearGradient>
<linearGradient id="paint3_linear_1307_22023" x1="6.46191" y1="4.1603" x2="17.2449" y2="4.1603" gradientUnits="userSpaceOnUse">
<stop stop-color="#056B85"/>
<stop offset="0.21" stop-color="#04667F"/>
<stop offset="0.46" stop-color="#035A71"/>
<stop offset="0.74" stop-color="#024759"/>
<stop offset="1" stop-color="#002F3B"/>
</linearGradient>
<linearGradient id="paint4_linear_1307_22023" x1="0.0224609" y1="16.4112" x2="6.65634" y2="16.4112" gradientUnits="userSpaceOnUse">
<stop stop-color="#9EA3A4"/>
<stop offset="0.08" stop-color="#8B9CA0"/>
<stop offset="0.21" stop-color="#6F929A"/>
<stop offset="0.33" stop-color="#5E8C97"/>
<stop offset="0.43" stop-color="#598A96"/>
<stop offset="1" stop-color="#056B85"/>
</linearGradient>
<linearGradient id="paint5_linear_1307_22023" x1="6.46191" y1="8.19029" x2="12.2018" y2="8.19029" gradientUnits="userSpaceOnUse">
<stop stop-color="#9EA3A4"/>
<stop offset="0.08" stop-color="#8B9CA0"/>
<stop offset="0.21" stop-color="#6F929A"/>
<stop offset="0.33" stop-color="#5E8C97"/>
<stop offset="0.43" stop-color="#598A96"/>
<stop offset="1" stop-color="#056B85"/>
</linearGradient>
<linearGradient id="paint6_linear_1307_22023" x1="19.793" y1="21.7354" x2="28.1988" y2="21.7354" gradientUnits="userSpaceOnUse">
<stop stop-color="#056B85"/>
<stop offset="0.21" stop-color="#04667F"/>
<stop offset="0.46" stop-color="#035A71"/>
<stop offset="0.74" stop-color="#024759"/>
<stop offset="1" stop-color="#002F3B"/>
</linearGradient>
<linearGradient id="paint7_linear_1307_22023" x1="14.6582" y1="18.3726" x2="21.5306" y2="18.3726" gradientUnits="userSpaceOnUse">
<stop stop-color="#056B85"/>
<stop offset="0.12" stop-color="#035A70"/>
<stop offset="0.31" stop-color="#024759"/>
<stop offset="0.51" stop-color="#003948"/>
<stop offset="0.73" stop-color="#00313E"/>
<stop offset="1" stop-color="#002F3B"/>
</linearGradient>
<linearGradient id="paint8_linear_1307_22023" x1="14.6582" y1="8.10572" x2="19.7933" y2="8.10572" gradientUnits="userSpaceOnUse">
<stop stop-color="#056B85"/>
<stop offset="0.21" stop-color="#04667F"/>
<stop offset="0.46" stop-color="#035A71"/>
<stop offset="0.74" stop-color="#024759"/>
<stop offset="1" stop-color="#002F3B"/>
</linearGradient>
<linearGradient id="paint9_linear_1307_22023" x1="12.2012" y1="4.74185" x2="17.2443" y2="4.74185" gradientUnits="userSpaceOnUse">
<stop stop-color="#056B85"/>
<stop offset="0.12" stop-color="#035A70"/>
<stop offset="0.31" stop-color="#024759"/>
<stop offset="0.51" stop-color="#003948"/>
<stop offset="0.73" stop-color="#00313E"/>
<stop offset="1" stop-color="#002F3B"/>
</linearGradient>
<linearGradient id="paint10_linear_1307_22023" x1="17.2441" y1="13.611" x2="28.1987" y2="13.611" gradientUnits="userSpaceOnUse">
<stop stop-color="#056B85"/>
<stop offset="0.12" stop-color="#035A70"/>
<stop offset="0.31" stop-color="#024759"/>
<stop offset="0.51" stop-color="#003948"/>
<stop offset="0.73" stop-color="#00313E"/>
<stop offset="1" stop-color="#002F3B"/>
</linearGradient>
<linearGradient id="paint11_linear_1307_22023" x1="0" y1="22.3731" x2="6.77454" y2="22.3731" gradientUnits="userSpaceOnUse">
<stop stop-color="#056B85"/>
<stop offset="0.21" stop-color="#04667F"/>
<stop offset="0.46" stop-color="#035A71"/>
<stop offset="0.74" stop-color="#024759"/>
<stop offset="1" stop-color="#002F3B"/>
</linearGradient>
</defs>
</svg>
